<svg width="43" height="43" viewBox="0 0 43 43" fill="none" xmlns="http://www.w3.org/2000/svg">
<rect width="43" height="43" rx="12" fill="#00252E" style="fill:#00252E;fill:color(display-p3 0.0000 0.1451 0.1804);fill-opacity:1;"/>
<g opacity="0.25" filter="url(#filter0_f_229_303)">
<path d="M36.0053 12.6602C35.6608 11.3804 34.9899 10.2417 33.9926 9.24397C33.0125 8.26393 31.8782 7.62416 30.5897 7.32334C29.3011 7.02253 27.9981 7.04555 26.6804 7.39239C25.3803 7.7394 24.2451 8.3981 23.2747 9.36848L11.7253 20.9179L15.2609 24.4534L26.8099 12.9043C27.3908 12.3239 27.8528 11.7546 28.7007 11.7011C29.5404 11.6563 30.2335 11.9074 30.7801 12.4544C31.3722 13.0465 31.6546 13.7358 31.6273 14.5223C31.5912 15.3174 30.7608 16.0245 30.1101 16.6752L23.7462 23.0392L27.2817 26.5747L33.6457 20.2108C34.6685 19.1879 35.6021 17.7952 35.975 16.5041C36.3309 15.2133 36.3409 13.932 36.0053 12.6602Z" fill="white" style="fill:white;fill-opacity:1;"/>
<path d="M36.0053 12.6602C35.6608 11.3804 34.9899 10.2417 33.9926 9.24397C33.0125 8.26393 31.8782 7.62416 30.5897 7.32334C29.3011 7.02253 27.9981 7.04555 26.6804 7.39239C25.3803 7.7394 24.2451 8.3981 23.2747 9.36848L11.7253 20.9179L15.2609 24.4534L26.8099 12.9043C27.3908 12.3239 27.8528 11.7546 28.7007 11.7011C29.5404 11.6563 30.2335 11.9074 30.7801 12.4544C31.3722 13.0465 31.6546 13.7358 31.6273 14.5223C31.5912 15.3174 30.7608 16.0245 30.1101 16.6752L23.7462 23.0392L27.2817 26.5747L33.6457 20.2108C34.6685 19.1879 35.6021 17.7952 35.975 16.5041C36.3309 15.2133 36.3409 13.932 36.0053 12.6602Z" fill="url(#paint0_linear_229_303)" style=""/>
<path d="M7.24442 30.5893C7.58893 31.869 8.25983 33.0078 9.25711 34.0055C10.2371 34.9855 11.3714 35.6253 12.66 35.9261C13.9485 36.2269 15.2516 36.2039 16.5692 35.8571C17.8693 35.51 19.0046 34.8513 19.975 33.881L27.9888 25.8671L24.4533 22.3316L16.4398 30.3451C15.8589 30.9255 15.3969 31.4949 14.549 31.5483C13.7093 31.5931 13.0161 31.342 12.4696 30.795C11.8775 30.2029 11.5951 29.5136 11.6224 28.7272C11.6584 27.9321 12.4889 27.2249 13.1396 26.5742L18.7964 20.9174L15.2609 17.3818L9.60403 23.0387C8.58115 24.0616 7.64759 25.4542 7.27467 26.7453C6.91882 28.0361 6.90874 29.3175 7.24442 30.5893Z" fill="white" style="fill:white;fill-opacity:1;"/>
<path d="M7.24442 30.5893C7.58893 31.869 8.25983 33.0078 9.25711 34.0055C10.2371 34.9855 11.3714 35.6253 12.66 35.9261C13.9485 36.2269 15.2516 36.2039 16.5692 35.8571C17.8693 35.51 19.0046 34.8513 19.975 33.881L27.9888 25.8671L24.4533 22.3316L16.4398 30.3451C15.8589 30.9255 15.3969 31.4949 14.549 31.5483C13.7093 31.5931 13.0161 31.342 12.4696 30.795C11.8775 30.2029 11.5951 29.5136 11.6224 28.7272C11.6584 27.9321 12.4889 27.2249 13.1396 26.5742L18.7964 20.9174L15.2609 17.3818L9.60403 23.0387C8.58115 24.0616 7.64759 25.4542 7.27467 26.7453C6.91882 28.0361 6.90874 29.3175 7.24442 30.5893Z" fill="url(#paint1_linear_229_303)" style=""/>
<path d="M12.6601 7.24442C11.3803 7.58893 10.2416 8.25983 9.24385 9.25711C8.26381 10.2371 7.62403 11.3714 7.32322 12.66C7.02241 13.9485 7.04543 15.2516 7.39227 16.5692C7.73928 17.8693 8.39797 19.0046 9.36836 19.975L18.0893 28.6959L21.6248 25.1604L12.9042 16.4398C12.3238 15.8589 11.7545 15.3969 11.701 14.549C11.6562 13.7093 11.9073 13.0161 12.4543 12.4696C13.0464 11.8775 13.7357 11.5951 14.5221 11.6224C15.3173 11.6584 16.0244 12.4889 16.6751 13.1396L18.0893 14.5538L21.6248 11.0182L20.2106 9.60403C19.1878 8.58115 17.7951 7.64759 16.504 7.27467C15.2132 6.91882 13.9319 6.90874 12.6601 7.24442Z" fill="white" style="fill:white;fill-opacity:1;"/>
<path d="M12.6601 7.24442C11.3803 7.58893 10.2416 8.25983 9.24385 9.25711C8.26381 10.2371 7.62403 11.3714 7.32322 12.66C7.02241 13.9485 7.04543 15.2516 7.39227 16.5692C7.73928 17.8693 8.39797 19.0046 9.36836 19.975L18.0893 28.6959L21.6248 25.1604L12.9042 16.4398C12.3238 15.8589 11.7545 15.3969 11.701 14.549C11.6562 13.7093 11.9073 13.0161 12.4543 12.4696C13.0464 11.8775 13.7357 11.5951 14.5221 11.6224C15.3173 11.6584 16.0244 12.4889 16.6751 13.1396L18.0893 14.5538L21.6248 11.0182L20.2106 9.60403C19.1878 8.58115 17.7951 7.64759 16.504 7.27467C15.2132 6.91882 13.9319 6.90874 12.6601 7.24442Z" fill="url(#paint2_linear_229_303)" style=""/>
<path d="M30.5896 36.0052C31.8694 35.6607 33.0081 34.9898 34.0058 33.9925C34.9859 33.0125 35.6257 31.8782 35.9265 30.5896C36.2273 29.3011 36.2043 27.998 35.8574 26.6804C35.5104 25.3803 34.8517 24.2451 33.8813 23.2747L25.1604 14.5537L21.6248 18.0892L30.3455 26.8099C30.9259 27.3907 31.4952 27.8527 31.5487 28.7006C31.5935 29.5403 31.3424 30.2335 30.7954 30.7801C30.2033 31.3722 29.514 31.6545 28.7276 31.6272C27.9324 31.5912 27.2253 30.7607 26.5746 30.1101L25.1604 28.6958L21.6248 32.2314L23.0391 33.6456C24.0619 34.6685 25.4546 35.602 26.7457 35.975C28.0365 36.3308 29.3178 36.3409 30.5896 36.0052Z" fill="white" style="fill:white;fill-opacity:1;"/>
<path d="M30.5896 36.0052C31.8694 35.6607 33.0081 34.9898 34.0058 33.9925C34.9859 33.0125 35.6257 31.8782 35.9265 30.5896C36.2273 29.3011 36.2043 27.998 35.8574 26.6804C35.5104 25.3803 34.8517 24.2451 33.8813 23.2747L25.1604 14.5537L21.6248 18.0892L30.3455 26.8099C30.9259 27.3907 31.4952 27.8527 31.5487 28.7006C31.5935 29.5403 31.3424 30.2335 30.7954 30.7801C30.2033 31.3722 29.514 31.6545 28.7276 31.6272C27.9324 31.5912 27.2253 30.7607 26.5746 30.1101L25.1604 28.6958L21.6248 32.2314L23.0391 33.6456C24.0619 34.6685 25.4546 35.602 26.7457 35.975C28.0365 36.3308 29.3178 36.3409 30.5896 36.0052Z" fill="url(#paint3_linear_229_303)" style=""/>
</g>
<path d="M35.8804 12.5362C35.5359 11.2564 34.865 10.1177 33.8677 9.11995C32.8877 8.13991 31.7534 7.50013 30.4648 7.19932C29.1763 6.89851 27.8732 6.92152 26.5556 7.26837C25.2555 7.61537 24.1203 8.27407 23.1499 9.24446L11.6005 20.7938L15.136 24.3294L26.6851 12.7803C27.2659 12.1999 27.7279 11.6306 28.5758 11.5771C29.4155 11.5323 30.1087 11.7834 30.6553 12.3304C31.2474 12.9225 31.5297 13.6118 31.5024 14.3982C31.4664 15.1934 30.636 15.9005 29.9853 16.5512L23.6213 22.9152L27.1568 26.4507L33.5208 20.0867C34.5437 19.0639 35.4772 17.6712 35.8502 16.3801C36.206 15.0893 36.2161 13.808 35.8804 12.5362Z" fill="white" style="fill:white;fill-opacity:1;"/>
<path d="M35.8804 12.5362C35.5359 11.2564 34.865 10.1177 33.8677 9.11995C32.8877 8.13991 31.7534 7.50013 30.4648 7.19932C29.1763 6.89851 27.8732 6.92152 26.5556 7.26837C25.2555 7.61537 24.1203 8.27407 23.1499 9.24446L11.6005 20.7938L15.136 24.3294L26.6851 12.7803C27.2659 12.1999 27.7279 11.6306 28.5758 11.5771C29.4155 11.5323 30.1087 11.7834 30.6553 12.3304C31.2474 12.9225 31.5297 13.6118 31.5024 14.3982C31.4664 15.1934 30.636 15.9005 29.9853 16.5512L23.6213 22.9152L27.1568 26.4507L33.5208 20.0867C34.5437 19.0639 35.4772 17.6712 35.8502 16.3801C36.206 15.0893 36.2161 13.808 35.8804 12.5362Z" fill="url(#paint4_linear_229_303)" style=""/>
<path d="M7.11957 30.4652C7.46408 31.745 8.13498 32.8837 9.13226 33.8814C10.1123 34.8615 11.2466 35.5013 12.5351 35.8021C13.8237 36.1029 15.1268 36.0799 16.4444 35.733C17.7445 35.386 18.8797 34.7273 19.8501 33.7569L27.864 25.7431L24.3284 22.2076L16.3149 30.2211C15.7341 30.8015 15.2721 31.3708 14.4241 31.4243C13.5844 31.4691 12.8913 31.218 12.3447 30.671C11.7526 30.0789 11.4702 29.3896 11.4976 28.6032C11.5336 27.808 12.364 27.1009 13.0147 26.4502L18.6716 20.7933L15.136 17.2578L9.47918 22.9147C8.4563 23.9375 7.52274 25.3302 7.14982 26.6213C6.79397 27.9121 6.78389 29.1934 7.11957 30.4652Z" fill="white" style="fill:white;fill-opacity:1;"/>
<path d="M7.11957 30.4652C7.46408 31.745 8.13498 32.8837 9.13226 33.8814C10.1123 34.8615 11.2466 35.5013 12.5351 35.8021C13.8237 36.1029 15.1268 36.0799 16.4444 35.733C17.7445 35.386 18.8797 34.7273 19.8501 33.7569L27.864 25.7431L24.3284 22.2076L16.3149 30.2211C15.7341 30.8015 15.2721 31.3708 14.4241 31.4243C13.5844 31.4691 12.8913 31.218 12.3447 30.671C11.7526 30.0789 11.4702 29.3896 11.4976 28.6032C11.5336 27.808 12.364 27.1009 13.0147 26.4502L18.6716 20.7933L15.136 17.2578L9.47918 22.9147C8.4563 23.9375 7.52274 25.3302 7.14982 26.6213C6.79397 27.9121 6.78389 29.1934 7.11957 30.4652Z" fill="url(#paint5_linear_229_303)" style=""/>
<path d="M12.5352 7.1204C11.2555 7.46491 10.1167 8.1358 9.119 9.13308C8.13896 10.1131 7.49919 11.2474 7.19837 12.536C6.89756 13.8245 6.92058 15.1276 7.26742 16.4452C7.61443 17.7453 8.27313 18.8806 9.24352 19.8509L17.9645 28.5719L21.5 25.0364L12.7794 16.3157C12.199 15.7349 11.6296 15.2729 11.5761 14.425C11.5313 13.5853 11.7824 12.8921 12.3295 12.3455C12.9216 11.7534 13.6108 11.4711 14.3973 11.4984C15.1924 11.5344 15.8996 12.3649 16.5503 13.0155L17.9645 14.4298L21.5 10.8942L20.0858 9.48001C19.0629 8.45713 17.6702 7.52356 16.3791 7.15064C15.0883 6.7948 13.807 6.78471 12.5352 7.1204Z" fill="white" style="fill:white;fill-opacity:1;"/>
<path d="M12.5352 7.1204C11.2555 7.46491 10.1167 8.1358 9.119 9.13308C8.13896 10.1131 7.49919 11.2474 7.19837 12.536C6.89756 13.8245 6.92058 15.1276 7.26742 16.4452C7.61443 17.7453 8.27313 18.8806 9.24352 19.8509L17.9645 28.5719L21.5 25.0364L12.7794 16.3157C12.199 15.7349 11.6296 15.2729 11.5761 14.425C11.5313 13.5853 11.7824 12.8921 12.3295 12.3455C12.9216 11.7534 13.6108 11.4711 14.3973 11.4984C15.1924 11.5344 15.8996 12.3649 16.5503 13.0155L17.9645 14.4298L21.5 10.8942L20.0858 9.48001C19.0629 8.45713 17.6702 7.52356 16.3791 7.15064C15.0883 6.7948 13.807 6.78471 12.5352 7.1204Z" fill="url(#paint6_linear_229_303)" style=""/>
<path d="M30.4648 35.8812C31.7445 35.5367 32.8833 34.8658 33.881 33.8685C34.861 32.8885 35.5008 31.7542 35.8016 30.4656C36.1024 29.1771 36.0794 27.874 35.7326 26.5564C35.3856 25.2563 34.7269 24.121 33.7565 23.1506L25.0355 14.4297L21.5 17.9652L30.2206 26.6858C30.801 27.2667 31.3704 27.7287 31.4239 28.5766C31.4687 29.4163 31.2175 30.1095 30.6705 30.656C30.0784 31.2481 29.3892 31.5305 28.6027 31.5032C27.8076 31.4672 27.1004 30.6367 26.4497 29.986L25.0355 28.5718L21.5 32.1074L22.9142 33.5216C23.9371 34.5444 25.3297 35.478 26.6208 35.8509C27.9117 36.2068 29.193 36.2169 30.4648 35.8812Z" fill="white" style="fill:white;fill-opacity:1;"/>
<path d="M30.4648 35.8812C31.7445 35.5367 32.8833 34.8658 33.881 33.8685C34.861 32.8885 35.5008 31.7542 35.8016 30.4656C36.1024 29.1771 36.0794 27.874 35.7326 26.5564C35.3856 25.2563 34.7269 24.121 33.7565 23.1506L25.0355 14.4297L21.5 17.9652L30.2206 26.6858C30.801 27.2667 31.3704 27.7287 31.4239 28.5766C31.4687 29.4163 31.2175 30.1095 30.6705 30.656C30.0784 31.2481 29.3892 31.5305 28.6027 31.5032C27.8076 31.4672 27.1004 30.6367 26.4497 29.986L25.0355 28.5718L21.5 32.1074L22.9142 33.5216C23.9371 34.5444 25.3297 35.478 26.6208 35.8509C27.9117 36.2068 29.193 36.2169 30.4648 35.8812Z" fill="url(#paint7_linear_229_303)" style=""/>
<g opacity="0.36">
<rect x="17.2577" y="15.1362" width="5" height="4" transform="rotate(45 17.2577 15.1362)" fill="url(#paint8_linear_229_303)" style="" style="mix-blend-mode:multiply"/>
<rect x="25.743" y="27.8643" width="5" height="4" transform="rotate(-135 25.743 27.8643)" fill="url(#paint9_linear_229_303)" style="" style="mix-blend-mode:multiply"/>
<rect x="27.8643" y="17.2573" width="5" height="4" transform="rotate(135 27.8643 17.2573)" fill="url(#paint10_linear_229_303)" style="" style="mix-blend-mode:multiply"/>
<rect width="5" height="4" transform="matrix(-0.707107 0.707107 0.707107 0.707107 18.6719 22.207)" fill="url(#paint11_linear_229_303)" style="" style="mix-blend-mode:multiply"/>
</g>
<defs>
<filter id="filter0_f_229_303" x="3" y="3" width="37.2497" height="37.2495" filterUnits="userSpaceOnUse" color-interpolation-filters="sRGB">
<feFlood flood-opacity="0" result="BackgroundImageFix"/>
<feBlend mode="normal" in="SourceGraphic" in2="BackgroundImageFix" result="shape"/>
<feGaussianBlur stdDeviation="2" result="effect1_foregroundBlur_229_303"/>
</filter>
<linearGradient id="paint0_linear_229_303" x1="28.4076" y1="14.1828" x2="24.4215" y2="25.2887" gradientUnits="userSpaceOnUse">
<stop stop-color="#0DDEAC" style="stop-color:#0DDEAC;stop-color:color(display-p3 0.0510 0.8706 0.6745);stop-opacity:1;"/>
<stop offset="1" stop-color="#C5FD02" style="stop-color:#C5FD02;stop-color:color(display-p3 0.7725 0.9922 0.0078);stop-opacity:1;"/>
</linearGradient>
<linearGradient id="paint1_linear_229_303" x1="16.1631" y1="28.7961" x2="19.9274" y2="16.9867" gradientUnits="userSpaceOnUse">
<stop stop-color="#0DDEAC" style="stop-color:#0DDEAC;stop-color:color(display-p3 0.0510 0.8706 0.6745);stop-opacity:1;"/>
<stop offset="1" stop-color="#C5FD02" style="stop-color:#C5FD02;stop-color:color(display-p3 0.7725 0.9922 0.0078);stop-opacity:1;"/>
</linearGradient>
<linearGradient id="paint2_linear_229_303" x1="16.6329" y1="15.8643" x2="30.865" y2="21.9248" gradientUnits="userSpaceOnUse">
<stop stop-color="#0DDEAC" style="stop-color:#0DDEAC;stop-color:color(display-p3 0.0510 0.8706 0.6745);stop-opacity:1;"/>
<stop offset="1" stop-color="#C5FD02" style="stop-color:#C5FD02;stop-color:color(display-p3 0.7725 0.9922 0.0078);stop-opacity:1;"/>
</linearGradient>
<linearGradient id="paint3_linear_229_303" x1="31.357" y1="29.6744" x2="23.6418" y2="27.477" gradientUnits="userSpaceOnUse">
<stop stop-color="#0DDEAC" style="stop-color:#0DDEAC;stop-color:color(display-p3 0.0510 0.8706 0.6745);stop-opacity:1;"/>
<stop offset="1" stop-color="#C5FD02" style="stop-color:#C5FD02;stop-color:color(display-p3 0.7725 0.9922 0.0078);stop-opacity:1;"/>
</linearGradient>
<linearGradient id="paint4_linear_229_303" x1="29.5496" y1="11.7687" x2="27.3522" y2="19.484" gradientUnits="userSpaceOnUse">
<stop stop-color="#0DDEAC" style="stop-color:#0DDEAC;stop-color:color(display-p3 0.0510 0.8706 0.6745);stop-opacity:1;"/>
<stop offset="1" stop-color="#C5FD02" style="stop-color:#C5FD02;stop-color:color(display-p3 0.7725 0.9922 0.0078);stop-opacity:1;"/>
</linearGradient>
<linearGradient id="paint5_linear_229_303" x1="13.4503" y1="31.2327" x2="15.6477" y2="23.5175" gradientUnits="userSpaceOnUse">
<stop stop-color="#0DDEAC" style="stop-color:#0DDEAC;stop-color:color(display-p3 0.0510 0.8706 0.6745);stop-opacity:1;"/>
<stop offset="1" stop-color="#C5FD02" style="stop-color:#C5FD02;stop-color:color(display-p3 0.7725 0.9922 0.0078);stop-opacity:1;"/>
</linearGradient>
<linearGradient id="paint6_linear_229_303" x1="11.7678" y1="13.4511" x2="19.4831" y2="15.6485" gradientUnits="userSpaceOnUse">
<stop stop-color="#0DDEAC" style="stop-color:#0DDEAC;stop-color:color(display-p3 0.0510 0.8706 0.6745);stop-opacity:1;"/>
<stop offset="1" stop-color="#C5FD02" style="stop-color:#C5FD02;stop-color:color(display-p3 0.7725 0.9922 0.0078);stop-opacity:1;"/>
</linearGradient>
<linearGradient id="paint7_linear_229_303" x1="31.2322" y1="29.5504" x2="23.5169" y2="27.353" gradientUnits="userSpaceOnUse">
<stop stop-color="#0DDEAC" style="stop-color:#0DDEAC;stop-color:color(display-p3 0.0510 0.8706 0.6745);stop-opacity:1;"/>
<stop offset="1" stop-color="#C5FD02" style="stop-color:#C5FD02;stop-color:color(display-p3 0.7725 0.9922 0.0078);stop-opacity:1;"/>
</linearGradient>
<linearGradient id="paint8_linear_229_303" x1="19.7577" y1="15.1362" x2="19.7577" y2="19.1362" gradientUnits="userSpaceOnUse">
<stop stop-color="white" style="stop-color:white;stop-opacity:1;"/>
<stop offset="1" style="stop-color:black;stop-opacity:1;"/>
</linearGradient>
<linearGradient id="paint9_linear_229_303" x1="28.243" y1="27.8643" x2="28.243" y2="31.8643" gradientUnits="userSpaceOnUse">
<stop stop-color="white" style="stop-color:white;stop-opacity:1;"/>
<stop offset="1" style="stop-color:black;stop-opacity:1;"/>
</linearGradient>
<linearGradient id="paint10_linear_229_303" x1="30.3643" y1="17.2573" x2="30.3643" y2="21.2573" gradientUnits="userSpaceOnUse">
<stop stop-color="white" style="stop-color:white;stop-opacity:1;"/>
<stop offset="1" style="stop-color:black;stop-opacity:1;"/>
</linearGradient>
<linearGradient id="paint11_linear_229_303" x1="2.5" y1="0" x2="2.5" y2="4" gradientUnits="userSpaceOnUse">
<stop stop-color="white" style="stop-color:white;stop-opacity:1;"/>
<stop offset="1" style="stop-color:black;stop-opacity:1;"/>
</linearGradient>
</defs>
</svg>
