<svg width="24" height="25" viewBox="0 0 24 25" fill="none" xmlns="http://www.w3.org/2000/svg">
    <path d="M12 0.5C18.6276 0.5 24 5.8724 24 12.5C24 19.1276 18.6276 24.5 12 24.5C5.3724 24.5 0 19.1276 0 12.5C0 5.8724 5.3724 0.5 12 0.5ZM16.242 8.1572L10.302 14.0972L7.758 11.552C7.64659 11.4405 7.5143 11.3521 7.36871 11.2917C7.22311 11.2313 7.06704 11.2002 6.90942 11.2002C6.5911 11.2 6.28577 11.3264 6.0606 11.5514C5.83543 11.7764 5.70887 12.0817 5.70876 12.4C5.70864 12.7183 5.83499 13.0236 6.06 13.2488L9.3696 16.5584C9.49218 16.681 9.63773 16.7783 9.79792 16.8447C9.95811 16.9111 10.1298 16.9452 10.3032 16.9452C10.4766 16.9452 10.6483 16.9111 10.8085 16.8447C10.9687 16.7783 11.1142 16.681 11.2368 16.5584L17.94 9.8552C18.1652 9.63003 18.2917 9.32464 18.2917 9.0062C18.2917 8.68776 18.1652 8.38237 17.94 8.1572C17.7148 7.93203 17.4094 7.80553 17.091 7.80553C16.7726 7.80553 16.4672 7.93203 16.242 8.1572Z" fill="currentColor"/>
    </svg>
    