<svg width="40" height="23" viewBox="0 0 99 58" fill="none" xmlns="http://www.w3.org/2000/svg">
    <path fill-rule="evenodd" clip-rule="evenodd" d="M75.8317 11.8976C75.9654 16.2118 73.6855 20.9624 69.0044 25.6828C62.284 32.4594 55.5392 36.4359 48.8692 38.0047C46.0031 38.6788 43.1884 38.8993 40.4406 38.7248C41.4949 40.4367 42.8533 42.0143 44.4998 43.3965C52.2507 49.903 67.1889 52.6627 88.5984 43.2458L84.5156 41.7044C83.2239 41.2167 82.5721 39.7742 83.0598 38.4825C83.5474 37.1908 84.9899 36.539 86.2816 37.0266L98.7152 41.7207L89.6844 56.1882C88.9533 57.3594 87.4111 57.7162 86.2399 56.9851C85.0686 56.254 84.7118 54.7118 85.4429 53.5405L88.4362 48.7453C67.0745 57.5189 50.7277 55.1528 41.2851 47.2261C38.0709 44.5279 35.7432 41.2486 34.3436 37.681C32.8079 37.252 31.2988 36.7042 29.8193 36.0491C18.0747 30.8485 8.16159 18.8881 0.816554 5.71768C0.144053 4.51182 0.576429 2.9891 1.78229 2.3166C2.98816 1.6441 4.51087 2.07648 5.18337 3.28234C12.3383 16.1119 21.5791 26.932 31.8438 31.4772C32.2012 31.6355 32.5598 31.7861 32.9195 31.929C32.1634 25.1776 34.424 17.9936 39.9366 12.0353C49.7005 1.48207 61.5948 -1.0945 69.1415 2.32042C72.998 4.06553 75.6935 7.43899 75.8317 11.8976ZM38.2505 33.4418C36.8611 27.5554 38.4925 20.9587 43.6068 15.4309C52.4394 5.8842 62.1228 4.63249 67.0802 6.87575C69.4757 7.95973 70.7638 9.78696 70.8341 12.0525C70.9088 14.4625 69.6218 17.9595 65.4541 22.162C59.2137 28.4547 53.262 31.835 47.7245 33.1375C44.493 33.8976 41.3331 33.9668 38.2505 33.4418Z" fill="white" style="fill:white;fill-opacity:1;"/>
    </svg>
    