<svg  viewBox="0 0 1201 350" fill="none" xmlns="http://www.w3.org/2000/svg">
    <path d="M347.554 67.6782C343.435 52.3762 335.413 38.7605 323.489 26.8309C311.771 15.1127 298.208 7.463 282.801 3.86621C267.394 0.269426 251.813 0.544624 236.059 4.69181C220.513 8.84092 206.94 16.7169 195.337 28.3197L57.2421 166.414L99.5161 208.688L237.607 70.5976C244.552 63.6577 250.076 56.85 260.214 56.2106C270.255 55.675 278.543 58.6775 285.078 65.2181C292.158 72.2976 295.534 80.5392 295.207 89.9427C294.776 99.45 284.847 107.905 277.067 115.686L200.974 191.779L243.248 234.053L319.341 157.959C331.571 145.729 342.734 129.077 347.193 113.64C351.448 98.2055 351.568 82.885 347.554 67.6782Z" fill="white" style="fill:white;fill-opacity:1;"/>
    <path d="M347.554 67.6782C343.435 52.3762 335.413 38.7605 323.489 26.8309C311.771 15.1127 298.208 7.463 282.801 3.86621C267.394 0.269426 251.813 0.544624 236.059 4.69181C220.513 8.84092 206.94 16.7169 195.337 28.3197L57.2421 166.414L99.5161 208.688L237.607 70.5976C244.552 63.6577 250.076 56.85 260.214 56.2106C270.255 55.675 278.543 58.6775 285.078 65.2181C292.158 72.2976 295.534 80.5392 295.207 89.9427C294.776 99.45 284.847 107.905 277.067 115.686L200.974 191.779L243.248 234.053L319.341 157.959C331.571 145.729 342.734 129.077 347.193 113.64C351.448 98.2055 351.568 82.885 347.554 67.6782Z" fill="url(#paint0_linear_286_1674)" style=""/>
    <path d="M3.66427 282.054C7.78354 297.356 15.8054 310.972 27.7297 322.901C39.448 334.62 53.0106 342.269 68.4177 345.866C83.8248 349.463 99.4055 349.188 115.16 345.041C130.705 340.891 144.279 333.015 155.882 321.413L251.703 225.592L209.429 183.318L113.612 279.135C106.667 286.075 101.143 292.882 91.0041 293.522C80.9639 294.057 72.6761 291.055 66.1406 284.514C59.0611 277.435 55.6847 269.193 56.0116 259.79C56.4422 250.282 66.3717 241.827 74.1518 234.047L141.79 166.408L99.5162 124.135L31.8778 191.773C19.6474 204.003 8.48487 220.655 4.02593 236.093C-0.228895 251.527 -0.349445 266.847 3.66427 282.054Z" fill="white" style="fill:white;fill-opacity:1;"/>
    <path d="M3.66427 282.054C7.78354 297.356 15.8054 310.972 27.7297 322.901C39.448 334.62 53.0106 342.269 68.4177 345.866C83.8248 349.463 99.4055 349.188 115.16 345.041C130.705 340.891 144.279 333.015 155.882 321.413L251.703 225.592L209.429 183.318L113.612 279.135C106.667 286.075 101.143 292.882 91.0041 293.522C80.9639 294.057 72.6761 291.055 66.1406 284.514C59.0611 277.435 55.6847 269.193 56.0116 259.79C56.4422 250.282 66.3717 241.827 74.1518 234.047L141.79 166.408L99.5162 124.135L31.8778 191.773C19.6474 204.003 8.48487 220.655 4.02593 236.093C-0.228895 251.527 -0.349445 266.847 3.66427 282.054Z" fill="url(#paint1_linear_286_1674)" style=""/>
    <path d="M68.4184 2.92251C53.1165 7.04178 39.5007 15.0636 27.5712 26.9879C15.8529 38.7062 8.20323 52.2688 4.60644 67.6759C1.00966 83.083 1.28486 98.6638 5.43204 114.418C9.58116 129.963 17.4571 143.537 29.06 155.14L133.335 259.416L175.609 217.142L71.3378 112.87C64.3979 105.925 57.5903 100.401 56.9508 90.2624C56.4152 80.2221 59.4177 71.9343 65.9583 65.3989C73.0379 58.3193 81.2794 54.943 90.6829 55.2699C100.19 55.7005 108.646 65.6299 116.426 73.4101L133.335 90.3197L175.609 48.0457L158.7 31.1361C146.469 18.9057 129.817 7.74311 114.38 3.28417C98.9457 -0.970655 83.6252 -1.09121 68.4184 2.92251Z" fill="white" style="fill:white;fill-opacity:1;"/>
    <path d="M68.4184 2.92251C53.1165 7.04178 39.5007 15.0636 27.5712 26.9879C15.8529 38.7062 8.20323 52.2688 4.60644 67.6759C1.00966 83.083 1.28486 98.6638 5.43204 114.418C9.58116 129.963 17.4571 143.537 29.06 155.14L133.335 259.416L175.609 217.142L71.3378 112.87C64.3979 105.925 57.5903 100.401 56.9508 90.2624C56.4152 80.2221 59.4177 71.9343 65.9583 65.3989C73.0379 58.3193 81.2794 54.943 90.6829 55.2699C100.19 55.7005 108.646 65.6299 116.426 73.4101L133.335 90.3197L175.609 48.0457L158.7 31.1361C146.469 18.9057 129.817 7.74311 114.38 3.28417C98.9457 -0.970655 83.6252 -1.09121 68.4184 2.92251Z" fill="url(#paint2_linear_286_1674)" style=""/>
    <path d="M282.8 346.812C298.102 342.693 311.718 334.671 323.648 322.746C335.366 311.028 343.015 297.466 346.612 282.059C350.209 266.651 349.934 251.071 345.787 235.316C341.638 219.771 333.762 206.197 322.159 194.594L217.883 90.3188L175.609 132.593L279.881 236.864C286.821 243.809 293.628 249.333 294.268 259.472C294.804 269.512 291.801 277.8 285.26 284.336C278.181 291.415 269.939 294.791 260.536 294.465C251.029 294.034 242.573 284.104 234.793 276.324L217.883 259.415L175.609 301.689L192.519 318.598C204.749 330.829 221.401 341.991 236.839 346.45C252.273 350.705 267.593 350.826 282.8 346.812Z" fill="white" style="fill:white;fill-opacity:1;"/>
    <path d="M282.8 346.812C298.102 342.693 311.718 334.671 323.648 322.746C335.366 311.028 343.015 297.466 346.612 282.059C350.209 266.651 349.934 251.071 345.787 235.316C341.638 219.771 333.762 206.197 322.159 194.594L217.883 90.3188L175.609 132.593L279.881 236.864C286.821 243.809 293.628 249.333 294.268 259.472C294.804 269.512 291.801 277.8 285.26 284.336C278.181 291.415 269.939 294.791 260.536 294.465C251.029 294.034 242.573 284.104 234.793 276.324L217.883 259.415L175.609 301.689L192.519 318.598C204.749 330.829 221.401 341.991 236.839 346.45C252.273 350.705 267.593 350.826 282.8 346.812Z" fill="url(#paint3_linear_286_1674)" style=""/>
    <path d="M821.755 336.827C819.734 336.827 818.096 335.189 818.096 333.168V62.4365C818.096 60.416 819.734 58.778 821.755 58.778H858.783C860.803 58.778 862.441 60.416 862.441 62.4365V91.3453C873.436 70.4554 897.258 58.3613 924.744 58.3613C975.686 58.3613 1009.4 95.3767 1009.4 152.182C1009.4 208.622 978.618 249.668 924.744 249.668C897.624 249.668 874.169 239.04 862.808 220.716V333.168C862.808 335.189 861.17 336.827 859.149 336.827H821.755ZM863.174 154.381C863.174 186.999 883.331 209.355 914.116 209.355C945.634 209.355 964.325 186.632 964.325 154.381C964.325 122.13 945.634 99.0416 914.116 99.0416C883.331 99.0416 863.174 121.764 863.174 154.381Z" fill="#00252E" style="fill:#00252E;fill:color(display-p3 0.0000 0.1451 0.1804);fill-opacity:1;"/>
    <path fill-rule="evenodd" clip-rule="evenodd" d="M1010.76 250.547L1010.76 333.168C1010.76 335.189 1012.39 336.827 1014.41 336.827H1051.56C1053.58 336.827 1055.22 335.189 1055.22 333.168V220.716C1066.52 239.04 1089.84 249.668 1116.81 249.668C1170.39 249.668 1201 208.622 1201 152.182C1201 95.3767 1167.47 58.3613 1116.81 58.3613C1089.48 58.3613 1065.79 70.4554 1054.85 91.3453V62.4365C1054.85 60.416 1053.22 58.778 1051.2 58.778H1014.41C1012.39 58.778 1010.76 60.416 1010.76 62.4365V67.6219C1029.17 87.3126 1039.86 118.41 1039.86 157.149C1039.86 196.485 1029.67 229.613 1010.76 250.547ZM1106.24 209.355C1075.63 209.355 1055.58 186.999 1055.58 154.381C1055.58 121.764 1075.63 99.0416 1106.24 99.0416C1137.59 99.0416 1156.17 122.13 1156.17 154.381C1156.17 186.632 1137.59 209.355 1106.24 209.355Z" fill="#00252E" style="fill:#00252E;fill:color(display-p3 0.0000 0.1451 0.1804);fill-opacity:1;"/>
    <path d="M675.285 249.668C636.804 249.668 613.348 227.313 613.348 193.229C613.348 159.879 637.537 138.989 680.416 135.69L734.656 131.659V127.628C734.656 103.073 719.997 93.1777 697.274 93.1777C670.887 93.1777 656.228 104.172 656.228 123.23H618.113C618.113 84.0155 650.364 58.3613 699.473 58.3613C748.216 58.3613 778.268 84.7485 778.268 134.957V244.904H739.054L735.756 218.15C728.059 236.841 703.505 249.668 675.285 249.668ZM689.945 215.952C717.431 215.952 735.023 199.46 735.023 171.606V162.078L697.274 165.01C669.421 167.575 658.793 176.737 658.793 191.397C658.793 207.889 669.788 215.952 689.945 215.952Z" fill="#00252E" style="fill:#00252E;fill:color(display-p3 0.0000 0.1451 0.1804);fill-opacity:1;"/>
    <path d="M410.756 169.407V153.648H455.834V169.407C455.834 189.931 467.195 206.056 493.583 206.056C519.97 206.056 530.964 191.03 530.964 167.575V25.8512C530.964 23.8306 532.602 22.1926 534.623 22.1926H554.42H574.217C576.237 22.1926 577.875 23.8306 577.875 25.8512V170.14C577.875 217.417 544.891 249.668 493.949 249.668C438.976 249.668 410.756 215.585 410.756 169.407Z" fill="#00252E" style="fill:#00252E;fill:color(display-p3 0.0000 0.1451 0.1804);fill-opacity:1;"/>
    <path d="M434.951 334.653H425.39V278.29H434.951L453.148 323.165L471.344 278.29H481.059V334.653H471.498V317.305C471.498 305.971 471.498 302.655 472.038 298.646L457.697 334.653H448.599L434.334 298.723C434.874 302.115 434.951 307.436 434.951 314.452V334.653Z" fill="#00252E" style="fill:#00252E;fill:color(display-p3 0.0000 0.1451 0.1804);fill-opacity:1;"/>
    <path d="M554.061 334.653H519.055V278.29H554.061V287.389H528.925V301.884H551.439V310.597H528.925V325.555H554.061V334.653Z" fill="#00252E" style="fill:#00252E;fill:color(display-p3 0.0000 0.1451 0.1804);fill-opacity:1;"/>
    <path d="M612.334 334.653H592.056V278.29H611.794C628.449 278.29 639.937 289.779 639.937 306.587C639.937 323.165 628.68 334.653 612.334 334.653ZM610.869 287.389H601.925V325.555H611.409C622.666 325.555 629.528 318.307 629.528 306.587C629.528 294.636 622.512 287.389 610.869 287.389Z" fill="#00252E" style="fill:#00252E;fill:color(display-p3 0.0000 0.1451 0.1804);fill-opacity:1;"/>
    <path d="M687.802 278.29V334.653H677.933V278.29H687.802Z" fill="#00252E" style="fill:#00252E;fill:color(display-p3 0.0000 0.1451 0.1804);fill-opacity:1;"/>
    <path d="M736.053 334.653H725.798L746.154 278.29H756.254L776.61 334.653H766.201L761.652 321.623H740.602L736.053 334.653ZM749.932 295.099L743.532 313.295H758.799L752.322 295.099C751.86 293.634 751.32 291.938 751.166 290.781C750.934 291.861 750.472 293.557 749.932 295.099Z" fill="#00252E" style="fill:#00252E;fill:color(display-p3 0.0000 0.1451 0.1804);fill-opacity:1;"/>
    <defs>
    <linearGradient id="paint0_linear_286_1674" x1="271.858" y1="58.5022" x2="245.584" y2="150.753" gradientUnits="userSpaceOnUse">
    <stop stop-color="#0DDEAC" style="stop-color:#0DDEAC;stop-color:color(display-p3 0.0510 0.8706 0.6745);stop-opacity:1;"/>
    <stop offset="1" stop-color="#0DDEAC" stop-opacity="0.3" style="stop-color:#0DDEAC;stop-color:color(display-p3 0.0510 0.8706 0.6745);stop-opacity:0.3;"/>
    </linearGradient>
    <linearGradient id="paint1_linear_286_1674" x1="79.3603" y1="291.231" x2="105.634" y2="198.981" gradientUnits="userSpaceOnUse">
    <stop stop-color="#0DDEAC" style="stop-color:#0DDEAC;stop-color:color(display-p3 0.0510 0.8706 0.6745);stop-opacity:1;"/>
    <stop offset="1" stop-color="#0DDEAC" stop-opacity="0.3" style="stop-color:#0DDEAC;stop-color:color(display-p3 0.0510 0.8706 0.6745);stop-opacity:0.3;"/>
    </linearGradient>
    <linearGradient id="paint2_linear_286_1674" x1="59.2428" y1="78.6178" x2="151.493" y2="104.892" gradientUnits="userSpaceOnUse">
    <stop stop-color="#0DDEAC" style="stop-color:#0DDEAC;stop-color:color(display-p3 0.0510 0.8706 0.6745);stop-opacity:1;"/>
    <stop offset="1" stop-color="#0DDEAC" stop-opacity="0.3" style="stop-color:#0DDEAC;stop-color:color(display-p3 0.0510 0.8706 0.6745);stop-opacity:0.3;"/>
    </linearGradient>
    <linearGradient id="paint3_linear_286_1674" x1="291.976" y1="271.115" x2="199.725" y2="244.841" gradientUnits="userSpaceOnUse">
    <stop stop-color="#0DDEAC" style="stop-color:#0DDEAC;stop-color:color(display-p3 0.0510 0.8706 0.6745);stop-opacity:1;"/>
    <stop offset="1" stop-color="#0DDEAC" stop-opacity="0.3" style="stop-color:#0DDEAC;stop-color:color(display-p3 0.0510 0.8706 0.6745);stop-opacity:0.3;"/>
    </linearGradient>
    </defs>
    </svg>
    