<svg viewBox="0 0 168 49" fill="none" xmlns="http://www.w3.org/2000/svg">
    <path d="M45.2192 45.1369C43.7141 46.642 41.9892 47.6476 40.0445 48.1538C38.1132 48.6466 36.1618 48.6133 34.1905 48.0539C32.2192 47.4678 30.4477 46.3889 28.876 44.8172L26.9779 42.9191C26.8713 42.8126 26.8713 42.706 26.9779 42.5995L31.6132 37.9642C31.7197 37.8577 31.8462 37.8776 31.9928 38.0241L33.8309 39.8623C34.8299 40.8612 35.9354 41.394 37.1475 41.4606C38.3463 41.5139 39.3919 41.0943 40.2843 40.2019C41.1101 39.3761 41.483 38.3238 41.4031 37.0451C41.3099 35.7531 40.8171 34.6609 39.9246 33.7685L27.7691 21.613C27.6625 21.5064 27.6625 21.3998 27.7691 21.2933L32.3644 16.698C32.4709 16.5914 32.5908 16.6048 32.724 16.7379L44.8796 28.8136C46.3714 30.3054 47.3903 32.0436 47.9364 34.0282C48.4825 36.0395 48.5358 38.0241 48.0963 39.9821C47.6567 41.9401 46.6977 43.6584 45.2192 45.1369Z" fill="currentColor" />
    <path d="M45.1992 3.84316C46.7044 5.34828 47.71 7.07318 48.2161 9.01786C48.709 10.9492 48.6757 12.9005 48.1163 14.8719C47.5302 16.8432 46.4513 18.6147 44.8796 20.1864L42.9815 22.0845C42.8749 22.191 42.7684 22.191 42.6618 22.0845L38.0266 17.4492C37.92 17.3427 37.94 17.2161 38.0865 17.0696L39.9246 15.2315C40.9236 14.2325 41.4564 13.127 41.523 11.9149C41.5763 10.7161 41.1567 9.67052 40.2643 8.7781C39.4385 7.95228 38.3862 7.57933 37.1075 7.65925C35.8155 7.75249 34.7233 8.24532 33.8309 9.13773L21.6753 21.2933C21.5688 21.3998 21.4622 21.3998 21.3557 21.2933L16.7604 16.698C16.6538 16.5914 16.6671 16.4716 16.8003 16.3384L28.876 4.18281C30.3678 2.691 32.106 1.67205 34.0906 1.12594C36.1019 0.579834 38.0865 0.526555 40.0445 0.966105C42.0025 1.40565 43.7208 2.36467 45.1992 3.84316Z" fill="currentColor" />
    <path d="M3.90554 3.86314C5.41066 2.35801 7.13556 1.35238 9.08023 0.846228C11.0116 0.353399 12.9629 0.386698 14.9342 0.946125C16.9056 1.53219 18.6771 2.61109 20.2488 4.18281L22.1469 6.08087C22.2534 6.18742 22.2534 6.29398 22.1469 6.40054L17.5116 11.0358C17.405 11.1423 17.2785 11.1224 17.132 10.9759L15.2939 9.13773C14.2949 8.13876 13.1894 7.60597 11.9773 7.53937C10.7785 7.48609 9.7329 7.90566 8.84048 8.79808C8.01466 9.6239 7.64171 10.6762 7.72163 11.9548C7.81486 13.2469 8.30769 14.3391 9.20011 15.2315L21.3557 27.387C21.4622 27.4936 21.4622 27.6002 21.3557 27.7067L16.7604 32.302C16.6538 32.4086 16.5339 32.3952 16.4007 32.262L4.24519 20.1864C2.75338 18.6946 1.73443 16.9564 1.18832 14.9718C0.642212 12.9605 0.588933 10.9759 1.02848 9.01786C1.46803 7.05986 2.42705 5.34162 3.90554 3.86314Z" fill="currentColor" />
    <path d="M3.92552 45.1568C2.42039 43.6517 1.41475 41.9268 0.908606 39.9821C0.415777 38.0508 0.449076 36.0994 1.0085 34.1281C1.59457 32.1568 2.67346 30.3853 4.24519 28.8136L6.14324 26.9155C6.2498 26.809 6.35636 26.809 6.46292 26.9155L11.0982 31.5508C11.2047 31.6573 11.1847 31.7839 11.0382 31.9304L9.20011 33.7685C8.20114 34.7675 7.66835 35.873 7.60175 37.0851C7.54847 38.2839 7.96804 39.3295 8.86046 40.2219C9.68628 41.0477 10.7385 41.4207 12.0172 41.3407C13.3092 41.2475 14.4015 40.7547 15.2939 39.8623L27.4494 27.7067C27.556 27.6002 27.6625 27.6002 27.7691 27.7067L32.3644 32.302C32.4709 32.4086 32.4576 32.5284 32.3244 32.6616L20.2488 44.8172C18.757 46.309 17.0188 47.3279 15.0341 47.8741C13.0229 48.4202 11.0382 48.4734 9.08023 48.0339C7.12224 47.5943 5.404 46.6353 3.92552 45.1568Z" fill="currentColor" />
    <path d="M141.331 46.8038V10.1944H146.991L147.392 13.9509C148.894 11.0959 152.15 9.44305 155.907 9.44305C162.869 9.44305 167.477 14.5018 167.477 22.2653C167.477 29.9786 163.269 35.5884 155.907 35.5884C152.2 35.5884 148.995 34.1359 147.442 31.6315V46.8038H141.331ZM147.492 22.5658C147.492 27.0235 150.247 30.0788 154.454 30.0788C158.762 30.0788 161.316 26.9734 161.316 22.5658C161.316 18.1582 158.762 15.0027 154.454 15.0027C150.247 15.0027 147.492 18.1081 147.492 22.5658Z" fill="currentColor" />
    <path d="M121.254 35.5884C115.995 35.5884 112.789 32.5331 112.789 27.875C112.789 23.3171 116.095 20.4621 121.955 20.0114L129.368 19.4604V18.9095C129.368 15.5536 127.364 14.2013 124.259 14.2013C120.653 14.2013 118.649 15.7039 118.649 18.3084H113.44C113.44 12.9491 117.848 9.44305 124.56 9.44305C131.221 9.44305 135.328 13.0493 135.328 19.9112V34.9372H129.969L129.518 31.2809C128.466 33.8353 125.111 35.5884 121.254 35.5884ZM123.257 30.9804C127.014 30.9804 129.418 28.7265 129.418 24.9199V23.6176L124.259 24.0183C120.452 24.3689 119 25.6211 119 27.6246C119 29.8785 120.503 30.9804 123.257 30.9804Z" fill="currentColor" />
    <path d="M93.8138 35.5884C88.5547 35.5884 85.3491 32.5331 85.3491 27.875C85.3491 23.3171 88.6549 20.4621 94.515 20.0114L101.928 19.4604V18.9095C101.928 15.5536 99.9244 14.2013 96.819 14.2013C93.2128 14.2013 91.2093 15.7039 91.2093 18.3084H86.0002C86.0002 12.9491 90.4079 9.44305 97.1195 9.44305C103.781 9.44305 107.888 13.0493 107.888 19.9112V34.9372H102.529L102.078 31.2809C101.026 33.8353 97.6705 35.5884 93.8138 35.5884ZM95.8173 30.9804C99.5738 30.9804 101.978 28.7265 101.978 24.9199V23.6176L96.819 24.0183C93.0124 24.3689 91.5599 25.6211 91.5599 27.6246C91.5599 29.8785 93.0625 30.9804 95.8173 30.9804Z" fill="currentColor" />
    <path d="M56.6615 24.6193V22.4656H62.8222V24.6193C62.8222 27.4242 64.3749 29.628 67.9811 29.628C71.5874 29.628 73.09 27.5745 73.09 24.3689V4.67358H76.2955H79.5011V24.7195C79.5011 31.1807 74.9933 35.5884 68.0312 35.5884C60.5182 35.5884 56.6615 30.9303 56.6615 24.6193Z" fill="currentColor" />
    <path d="M62.3318 46.8889H61.0251V39.186H62.3318L64.8187 45.3188L67.3055 39.186H68.6332V46.8889H67.3266V44.518C67.3266 42.9689 67.3266 42.5158 67.4003 41.9679L65.4404 46.8889H64.1969L62.2475 41.9784C62.3213 42.4421 62.3318 43.1692 62.3318 44.1281V46.8889Z" fill="currentColor" />
    <path d="M85.1886 46.8889H80.4045V39.186H85.1886V40.4294H81.7533V42.4105H84.8303V43.6012H81.7533V45.6455H85.1886V46.8889Z" fill="currentColor" />
    <path d="M99.7312 46.8889H96.9598V39.186H99.6574C101.934 39.186 103.504 40.7561 103.504 43.0532C103.504 45.3188 101.965 46.8889 99.7312 46.8889ZM99.531 40.4294H98.3086V45.6455H99.6048C101.143 45.6455 102.081 44.6549 102.081 43.0532C102.081 41.4199 101.122 40.4294 99.531 40.4294Z" fill="currentColor" />
    <path d="M116.624 39.186V46.8889H115.275V39.186H116.624Z" fill="currentColor" />
    <path d="M129.797 46.8889H128.395L131.177 39.186H132.557L135.339 46.8889H133.917L133.295 45.1081H130.418L129.797 46.8889ZM131.693 41.4832L130.819 43.97H132.905L132.02 41.4832C131.957 41.2829 131.883 41.0511 131.862 40.8931C131.83 41.0406 131.767 41.2724 131.693 41.4832Z" fill="currentColor" />
    </svg>
    