<svg viewBox="0 0 164 48" fill="none" xmlns="http://www.w3.org/2000/svg">
    <path fill-rule="evenodd" clip-rule="evenodd" d="M3.34316 3.36314C4.84828 1.85801 6.57318 0.852376 8.51786 0.346228C10.4492 -0.146601 12.4005 -0.113302 14.3719 0.446125C16.3432 1.03219 18.1147 2.11109 19.6864 3.68281L21.5845 5.58087C21.691 5.68742 21.691 5.79398 21.5845 5.90054L16.9492 10.5358C16.8427 10.6423 16.7161 10.6224 16.5696 10.4759L14.7315 8.63774C13.7325 7.63876 12.627 7.10597 11.4149 7.03937C10.2161 6.98609 9.17052 7.40566 8.2781 8.29808C7.45228 9.1239 7.07933 10.1762 7.15925 11.4548C7.25249 12.7469 7.74532 13.8391 8.63774 14.7315L20.7933 26.887C20.8998 26.9936 20.8998 27.1002 20.7933 27.2067L16.198 31.802C16.0914 31.9086 15.9716 31.8952 15.8384 31.7621L3.68281 19.6864C2.191 18.1946 1.17205 16.4564 0.625941 14.4718C0.0798339 12.4605 0.0265551 10.4759 0.466105 8.51786C0.905655 6.55986 1.86467 4.84162 3.34316 3.36314ZM47.6538 8.51786C47.1476 6.57318 46.142 4.84828 44.6369 3.34316C43.1584 1.86467 41.4401 0.905655 39.4821 0.466105C37.5241 0.0265551 35.5395 0.0798339 33.5282 0.625941C31.5436 1.17205 29.8054 2.191 28.3136 3.68281L16.238 15.8384C16.1048 15.9716 16.0914 16.0914 16.198 16.198L20.7933 20.7933C20.8998 20.8998 21.0064 20.8998 21.113 20.7933L33.2685 8.63774C34.1609 7.74532 35.2531 7.25249 36.5452 7.15925C37.8238 7.07933 38.8761 7.45228 39.7019 8.2781C40.5943 9.17052 41.0139 10.2161 40.9606 11.4149C40.894 12.627 40.3612 13.7325 39.3623 14.7315L37.5241 16.5696C37.3776 16.7161 37.3577 16.8427 37.4642 16.9492L42.0995 21.5845C42.206 21.691 42.3126 21.691 42.4191 21.5845L44.3172 19.6864C45.8889 18.1147 46.9678 16.3432 47.5539 14.3719C48.1133 12.4005 48.1466 10.4492 47.6538 8.51786ZM39.4821 47.6538C41.4268 47.1476 43.1517 46.142 44.6568 44.6369C46.1353 43.1584 47.0943 41.4401 47.5339 39.4821C47.9734 37.5241 47.9202 35.5395 47.3741 33.5282C46.828 31.5436 45.809 29.8054 44.3172 28.3136L32.1616 16.238C32.0284 16.1048 31.9086 16.0914 31.802 16.198L27.2067 20.7933C27.1002 20.8998 27.1002 21.0064 27.2067 21.113L39.3623 33.2685C40.2547 34.1609 40.7475 35.2531 40.8408 36.5452C40.9207 37.8238 40.5477 38.8761 39.7219 39.7019C38.8295 40.5943 37.7839 41.0139 36.5851 40.9606C35.373 40.894 34.2675 40.3612 33.2685 39.3623L31.4304 37.5241C31.2839 37.3776 31.1573 37.3577 31.0508 37.4642L26.4155 42.0995C26.309 42.206 26.309 42.3126 26.4155 42.4191L28.3136 44.3172C29.8853 45.8889 31.6568 46.9678 33.6281 47.5539C35.5995 48.1133 37.5508 48.1466 39.4821 47.6538ZM0.346228 39.4821C0.852376 41.4268 1.85801 43.1517 3.36314 44.6568C4.84162 46.1353 6.55986 47.0943 8.51786 47.5339C10.4759 47.9734 12.4605 47.9202 14.4718 47.3741C16.4564 46.828 18.1946 45.809 19.6864 44.3172L31.7621 32.1616C31.8952 32.0284 31.9086 31.9086 31.802 31.802L27.2067 27.2067C27.1002 27.1002 26.9936 27.1002 26.887 27.2067L14.7315 39.3623C13.8391 40.2547 12.7469 40.7475 11.4548 40.8408C10.1762 40.9207 9.1239 40.5477 8.29808 39.7219C7.40566 38.8295 6.98609 37.7839 7.03937 36.5851C7.10597 35.373 7.63876 34.2675 8.63774 33.2685L10.4759 31.4304C10.6224 31.2839 10.6423 31.1573 10.5358 31.0508L5.90054 26.4155C5.79398 26.309 5.68742 26.309 5.58087 26.4155L3.68281 28.3136C2.11109 29.8853 1.03219 31.6568 0.446125 33.6281C-0.113302 35.5995 -0.146601 37.5508 0.346228 39.4821ZM111.67 45.5C111.67 45.7761 111.894 46 112.17 46H117.28C117.557 46 117.78 45.7761 117.78 45.5V30.1315C119.333 32.6358 122.539 34.0884 126.245 34.0884C133.608 34.0884 137.815 28.4786 137.815 20.7653C137.815 13.0018 133.207 7.94305 126.245 7.94305C122.489 7.94305 119.233 9.59592 117.73 12.4509V8.5C117.73 8.22386 117.506 8 117.23 8H112.17C111.894 8 111.67 8.22386 111.67 8.5V45.5ZM124.793 28.5788C120.585 28.5788 117.83 25.5235 117.83 21.0658C117.83 16.6081 120.585 13.5027 124.793 13.5027C129.1 13.5027 131.654 16.6582 131.654 21.0658C131.654 25.4734 129.1 28.5788 124.793 28.5788ZM138 34.2084V45.5C138 45.7761 138.224 46 138.5 46H143.577C143.853 46 144.077 45.7761 144.077 45.5V30.1315C145.621 32.6358 148.808 34.0884 152.494 34.0884C159.816 34.0884 164 28.4786 164 20.7653C164 13.0018 159.418 7.94305 152.494 7.94305C148.759 7.94305 145.521 9.59592 144.027 12.4509V8.5C144.027 8.22386 143.803 8 143.527 8H138.5C138.224 8 138 8.22386 138 8.5V9.20866C140.517 11.8997 141.978 16.1497 141.978 21.444C141.978 26.8199 140.585 31.3474 138 34.2084ZM151.05 28.5788C146.866 28.5788 144.126 25.5235 144.126 21.0658C144.126 16.6081 146.866 13.5027 151.05 13.5027C155.333 13.5027 157.874 16.6582 157.874 21.0658C157.874 25.4734 155.333 28.5788 151.05 28.5788ZM83.6876 26.375C83.6876 31.0331 86.8932 34.0884 92.1523 34.0884C96.009 34.0884 99.3648 32.3353 100.417 29.7809L100.867 33.4372H106.227V18.4112C106.227 11.5493 102.12 7.94305 95.458 7.94305C88.7464 7.94305 84.3388 11.4491 84.3388 16.8084H89.5478C89.5478 14.2039 91.5513 12.7013 95.1575 12.7013C98.2629 12.7013 100.266 14.0536 100.266 17.4095V17.9604L92.8535 18.5114C86.9934 18.9621 83.6876 21.8171 83.6876 26.375ZM100.316 23.4199C100.316 27.2265 97.9123 29.4804 94.1558 29.4804C91.401 29.4804 89.8984 28.3785 89.8984 26.1246C89.8984 24.1211 91.3509 22.8689 95.1575 22.5183L100.316 22.1176V23.4199ZM56 23.1193V20.9656H62.1607V23.1193C62.1607 25.9242 63.7134 28.128 67.3196 28.128C70.9259 28.128 72.4285 26.0745 72.4285 22.8689V3.5C72.4285 3.22386 72.6523 3 72.9285 3H75.634H78.3396C78.6157 3 78.8396 3.22386 78.8396 3.5V23.2195C78.8396 29.6807 74.3318 34.0884 67.3697 34.0884C59.8567 34.0884 56 29.4303 56 23.1193ZM58 45.7029H59.3067V42.9421C59.3067 41.9832 59.2961 41.2561 59.2224 40.7924L61.1718 45.7029H62.4152L64.3752 40.7819C64.3014 41.3299 64.3014 41.783 64.3014 43.332V45.7029H65.6081V38H64.2804L61.7935 44.1328L59.3067 38H58V45.7029ZM75.5849 45.7029H70.8009V38H75.5849V39.2434H72.1497V41.2245H75.2267V42.4152H72.1497V44.4595H75.5849V45.7029ZM80.7776 45.7029H83.549C85.7829 45.7029 87.3214 44.1328 87.3214 41.8673C87.3214 39.5701 85.7513 38 83.4752 38H80.7776V45.7029ZM82.1264 39.2434H83.3487C84.9399 39.2434 85.8988 40.234 85.8988 41.8673C85.8988 43.469 84.961 44.4595 83.4225 44.4595H82.1264V39.2434ZM93.863 38V45.7029H92.5142V38H93.863ZM99.0558 45.7029H100.457L101.079 43.9221H103.956L104.577 45.7029H106L103.218 38H101.838L99.0558 45.7029ZM101.479 42.784L102.354 40.2972C102.428 40.0864 102.491 39.8546 102.523 39.7071C102.543 39.8623 102.615 40.0887 102.677 40.2864L102.681 40.2972L103.566 42.784H101.479Z" fill="white" style="fill:white;fill-opacity:1;"/>
    </svg>
    