<svg viewBox="0 0 1200 353" fill="none" xmlns="http://www.w3.org/2000/svg">
    <path fill-rule="evenodd" clip-rule="evenodd" d="M24.4621 25.4793C35.4752 14.4662 48.0965 7.10784 62.3258 3.40431C76.4576 -0.201748 90.7357 0.041904 105.16 4.13527C119.584 8.42356 132.547 16.3179 144.047 27.8183L157.935 41.7065C158.715 42.4862 158.715 43.2659 157.935 44.0456L124.019 77.9621C123.239 78.7418 122.313 78.5956 121.241 77.5235L107.791 64.0739C100.482 56.7643 92.3926 52.8658 83.5236 52.3785C74.7521 51.9887 67.1014 55.0587 60.5715 61.5886C54.5289 67.6312 51.8 75.3306 52.3848 84.6869C53.067 94.1406 56.673 102.132 63.2029 108.662L152.146 197.605C152.926 198.385 152.926 199.165 152.146 199.944L118.522 233.569C117.742 234.348 116.865 234.251 115.89 233.276L26.9474 144.918C16.0317 134.002 8.57596 121.284 4.58006 106.762C0.584151 92.0452 0.194305 77.5235 3.41052 63.1967C6.62674 48.8699 13.6439 36.2975 24.4621 25.4793ZM348.686 63.1967C344.983 48.9674 337.624 36.3462 326.611 25.3331C315.793 14.5149 303.22 7.49768 288.894 4.28146C274.567 1.06525 260.045 1.45509 245.329 5.451C230.807 9.44691 218.088 16.9027 207.173 27.8183L118.814 116.761C117.84 117.736 117.742 118.613 118.522 119.393L152.146 153.017C152.926 153.797 153.705 153.797 154.485 153.017L243.428 64.0739C249.958 57.544 257.95 53.9379 267.404 53.2557C276.76 52.6709 284.459 55.3998 290.502 61.4424C297.032 67.9723 300.102 75.623 299.712 84.3945C299.225 93.2635 295.326 101.353 288.017 108.662L274.567 122.112C273.495 123.184 273.349 124.11 274.128 124.89L308.045 158.806C308.825 159.586 309.604 159.586 310.384 158.806L324.272 144.918C335.773 133.417 343.667 120.455 347.955 106.031C352.049 91.6067 352.292 77.3286 348.686 63.1967ZM288.894 349.557C303.123 345.854 315.744 338.495 326.757 327.482C337.576 316.664 344.593 304.091 347.809 289.765C351.025 275.438 350.635 260.916 346.639 246.2C342.644 231.678 335.188 218.959 324.272 208.043L235.329 119.685C234.354 118.711 233.477 118.613 232.698 119.393L199.074 153.017C198.294 153.797 198.294 154.576 199.074 155.356L288.017 244.299C294.546 250.829 298.153 258.821 298.835 268.274C299.42 277.631 296.691 285.33 290.648 291.373C284.118 297.903 276.467 300.973 267.696 300.583C258.827 300.096 250.738 296.197 243.428 288.887L229.978 275.438C228.906 274.366 227.98 274.22 227.201 274.999L193.284 308.916C192.505 309.695 192.505 310.475 193.284 311.255L207.173 325.143C218.673 336.643 231.635 344.538 246.06 348.826C260.484 352.919 274.762 353.163 288.894 349.557ZM2.53337 289.765C6.2369 303.994 13.5952 316.615 24.6083 327.628C35.4265 338.447 47.999 345.464 62.3258 348.68C76.6526 351.896 91.1743 351.506 105.891 347.51C120.413 343.514 133.131 336.059 144.047 325.143L232.405 236.2C233.38 235.225 233.477 234.348 232.698 233.569L199.074 199.944C198.294 199.165 197.514 199.165 196.734 199.944L107.791 288.887C101.262 295.417 93.2697 299.023 83.816 299.706C74.4597 300.29 66.7603 297.562 60.7177 291.519C54.1878 284.989 51.1178 277.338 51.5076 268.567C51.9949 259.698 55.8934 251.609 63.2029 244.299L76.6526 230.849C77.7247 229.777 77.8708 228.851 77.0911 228.072L43.1747 194.155C42.395 193.376 41.6153 193.376 40.8356 194.155L26.9474 208.043C15.447 219.544 7.55262 232.506 3.26433 246.93C-0.829037 261.355 -1.07269 275.633 2.53337 289.765ZM817.096 333.798C817.096 335.818 818.734 337.456 820.755 337.456H858.149C860.17 337.456 861.808 335.818 861.808 333.798V221.345C873.169 239.67 896.624 250.298 923.744 250.298C977.618 250.298 1008.4 209.251 1008.4 152.812C1008.4 96.0062 974.686 58.9909 923.744 58.9909C896.258 58.9909 872.436 71.085 861.441 91.9748V63.0661C861.441 61.0455 859.803 59.4075 857.783 59.4075H820.755C818.734 59.4075 817.096 61.0455 817.096 63.0661V333.798ZM913.116 209.984C882.331 209.984 862.174 187.628 862.174 155.011C862.174 122.393 882.331 99.6711 913.116 99.6711C944.634 99.6711 963.325 122.76 963.325 155.011C963.325 187.262 944.634 209.984 913.116 209.984ZM1009.76 251.176V333.798C1009.76 335.818 1011.39 337.456 1013.41 337.456H1050.56C1052.58 337.456 1054.22 335.818 1054.22 333.798V221.345C1065.52 239.67 1088.84 250.298 1115.81 250.298C1169.39 250.298 1200 209.251 1200 152.812C1200 96.0062 1166.47 58.9909 1115.81 58.9909C1088.48 58.9909 1064.79 71.085 1053.85 91.9748V63.0661C1053.85 61.0455 1052.22 59.4075 1050.2 59.4075H1013.41C1011.39 59.4075 1009.76 61.0455 1009.76 63.0661V68.2514C1028.17 87.9422 1038.86 119.04 1038.86 157.778C1038.86 197.114 1028.67 230.242 1009.76 251.176ZM1105.24 209.984C1074.63 209.984 1054.58 187.628 1054.58 155.011C1054.58 122.393 1074.63 99.6711 1105.24 99.6711C1136.59 99.6711 1155.17 122.76 1155.17 155.011C1155.17 187.262 1136.59 209.984 1105.24 209.984ZM612.348 193.859C612.348 227.942 635.804 250.298 674.285 250.298C702.505 250.298 727.059 237.471 734.756 218.78L738.054 245.534H777.268V135.587C777.268 85.378 747.216 58.9909 698.473 58.9909C649.364 58.9909 617.113 84.6451 617.113 123.859H655.228C655.228 104.802 669.887 93.8073 696.274 93.8073C718.997 93.8073 733.656 103.702 733.656 128.257V132.289L679.416 136.32C636.537 139.618 612.348 160.508 612.348 193.859ZM734.023 172.236C734.023 200.089 716.431 216.581 688.945 216.581C668.788 216.581 657.793 208.518 657.793 192.026C657.793 177.367 668.421 168.205 696.274 165.639L734.023 162.707V172.236ZM409.756 170.037V154.278H454.834V170.037C454.834 190.56 466.195 206.686 492.583 206.686C518.97 206.686 529.964 191.66 529.964 168.204V26.4807C529.964 24.4602 531.602 22.8222 533.623 22.8222H553.42H573.216C575.237 22.8222 576.875 24.4601 576.875 26.4807V170.77C576.875 218.047 543.891 250.298 492.949 250.298C437.976 250.298 409.756 216.214 409.756 170.037ZM424.39 335.283H433.951V315.081C433.951 308.065 433.874 302.745 433.334 299.352L447.599 335.283H456.697L471.038 299.275C470.498 303.285 470.498 306.6 470.498 317.934V335.283H480.059V278.92H470.344L452.148 323.794L433.951 278.92H424.39V335.283ZM553.061 335.283H518.055V278.92H553.061V288.018H527.925V302.514H550.439V311.226H527.925V326.184H553.061V335.283ZM591.056 335.283H611.334C627.68 335.283 638.937 323.794 638.937 307.217C638.937 290.408 627.449 278.92 610.794 278.92H591.056V335.283ZM600.925 288.018H609.869C621.512 288.018 628.528 295.266 628.528 307.217C628.528 318.937 621.666 326.184 610.409 326.184H600.925V288.018ZM686.802 278.92V335.283H676.933V278.92H686.802ZM724.798 335.283H735.053L739.602 322.252H760.652L765.201 335.283H775.61L755.254 278.92H745.154L724.798 335.283ZM742.532 313.925L748.932 295.728C749.472 294.186 749.934 292.49 750.166 291.411C750.317 292.546 750.84 294.2 751.296 295.646L751.322 295.728L757.799 313.925H742.532Z" fill="currentColor" />
    </svg>
    